<?xml version="1.0" encoding="UTF-8" standalone="no"?><svg xmlns="http://www.w3.org/2000/svg" xmlns:xlink="http://www.w3.org/1999/xlink" contentStyleType="text/css" height="412px" preserveAspectRatio="none" style="width:1074px;height:412px;background:#FFFFFF;" version="1.1" viewBox="0 0 1074 412" width="1074px" zoomAndPan="magnify"><defs/><g><!--MD5=[0a699ff59dc55b75943bc266235a716b]
cluster RA--><g id="cluster_RA"><path d="M376.5,6 L488.5,6 A3.75,3.75 0 0 1 491,8.5 L498,28.2969 L788.5,28.2969 A2.5,2.5 0 0 1 791,30.7969 L791,100.5 A2.5,2.5 0 0 1 788.5,103 L376.5,103 A2.5,2.5 0 0 1 374,100.5 L374,8.5 A2.5,2.5 0 0 1 376.5,6 " fill="none" style="stroke:#000000;stroke-width:1.5;"/><line style="stroke:#000000;stroke-width:1.5;" x1="374" x2="498" y1="28.2969" y2="28.2969"/><text fill="#000000" font-family="sans-serif" font-size="14" font-weight="bold" lengthAdjust="spacing" textLength="111" x="378" y="20.9951">REST Adapter</text></g><!--MD5=[fac864e77539af95038f0151207ed802]
cluster API--><g id="cluster_API"><path d="M392.5,127 L485.5,127 A3.75,3.75 0 0 1 488,129.5 L495,149.2969 L773.5,149.2969 A2.5,2.5 0 0 1 776,151.7969 L776,214.5 A2.5,2.5 0 0 1 773.5,217 L392.5,217 A2.5,2.5 0 0 1 390,214.5 L390,129.5 A2.5,2.5 0 0 1 392.5,127 " fill="none" style="stroke:#000000;stroke-width:1.5;"/><line style="stroke:#000000;stroke-width:1.5;" x1="390" x2="495" y1="149.2969" y2="149.2969"/><text fill="#000000" font-family="sans-serif" font-size="14" font-weight="bold" lengthAdjust="spacing" textLength="92" x="394" y="141.9951">Domain API</text></g><!--MD5=[8cdd7d1049523944de4e811c976af9cd]
cluster Holi Bank Domain--><g id="cluster_Holi Bank Domain"><path d="M8.5,241 L151.5,241 A3.75,3.75 0 0 1 154,243.5 L161,263.2969 L1064.5,263.2969 A2.5,2.5 0 0 1 1067,265.7969 L1067,402.5 A2.5,2.5 0 0 1 1064.5,405 L8.5,405 A2.5,2.5 0 0 1 6,402.5 L6,243.5 A2.5,2.5 0 0 1 8.5,241 " fill="none" style="stroke:#000000;stroke-width:1.5;"/><line style="stroke:#000000;stroke-width:1.5;" x1="6" x2="161" y1="263.2969" y2="263.2969"/><text fill="#000000" font-family="sans-serif" font-size="14" font-weight="bold" lengthAdjust="spacing" textLength="142" x="10" y="255.9951">Holi Bank Domain</text></g><!--MD5=[d2c1ce4f639649eef62d1dc2a39d48e6]
cluster CM--><g id="cluster_CM"><path d="M593.5,284 L727.5,284 A3.75,3.75 0 0 1 730,286.5 L737,306.2969 L840.5,306.2969 A2.5,2.5 0 0 1 843,308.7969 L843,378.5 A2.5,2.5 0 0 1 840.5,381 L593.5,381 A2.5,2.5 0 0 1 591,378.5 L591,286.5 A2.5,2.5 0 0 1 593.5,284 " fill="none" style="stroke:#000000;stroke-width:1.5;"/><line style="stroke:#000000;stroke-width:1.5;" x1="591" x2="737" y1="306.2969" y2="306.2969"/><text fill="#000000" font-family="sans-serif" font-size="14" font-weight="bold" lengthAdjust="spacing" textLength="133" x="595" y="298.9951">Command Model</text></g><!--MD5=[4e955942685f69a37b896af5dbd1175e]
cluster QM--><g id="cluster_QM"><path d="M32.5,284 L133.5,284 A3.75,3.75 0 0 1 136,286.5 L143,306.2969 L564.5,306.2969 A2.5,2.5 0 0 1 567,308.7969 L567,378.5 A2.5,2.5 0 0 1 564.5,381 L32.5,381 A2.5,2.5 0 0 1 30,378.5 L30,286.5 A2.5,2.5 0 0 1 32.5,284 " fill="none" style="stroke:#000000;stroke-width:1.5;"/><line style="stroke:#000000;stroke-width:1.5;" x1="30" x2="143" y1="306.2969" y2="306.2969"/><text fill="#000000" font-family="sans-serif" font-size="14" font-weight="bold" lengthAdjust="spacing" textLength="100" x="34" y="298.9951">Query Model</text></g><!--MD5=[a0ac143f46810ee952f237ac76c7d856]
entity RCC--><g id="elem_RCC"><rect fill="#F1F1F1" height="46.2969" rx="2.5" ry="2.5" style="stroke:#181818;stroke-width:0.5;" width="190" x="585" y="41"/><rect fill="#F1F1F1" height="10" style="stroke:#181818;stroke-width:0.5;" width="15" x="755" y="46"/><rect fill="#F1F1F1" height="2" style="stroke:#181818;stroke-width:0.5;" width="4" x="753" y="48"/><rect fill="#F1F1F1" height="2" style="stroke:#181818;stroke-width:0.5;" width="4" x="753" y="52"/><text fill="#000000" font-family="sans-serif" font-size="14" lengthAdjust="spacing" textLength="150" x="600" y="73.9951">Command Controller</text></g><!--MD5=[05b0f2fd70e61facb6b2aab79c970043]
entity RQC--><g id="elem_RQC"><rect fill="#F1F1F1" height="46.2969" rx="2.5" ry="2.5" style="stroke:#181818;stroke-width:0.5;" width="159" x="390.5" y="41"/><rect fill="#F1F1F1" height="10" style="stroke:#181818;stroke-width:0.5;" width="15" x="529.5" y="46"/><rect fill="#F1F1F1" height="2" style="stroke:#181818;stroke-width:0.5;" width="4" x="527.5" y="48"/><rect fill="#F1F1F1" height="2" style="stroke:#181818;stroke-width:0.5;" width="4" x="527.5" y="52"/><text fill="#000000" font-family="sans-serif" font-size="14" lengthAdjust="spacing" textLength="119" x="405.5" y="73.9951">Query Controller</text></g><!--MD5=[e92c63db3bab30672c9b345919c8e067]
entity Command--><g id="elem_Command"><path d="M647,162 L733,162 A3.75,3.75 0 0 1 735.5,164.5 L742.5,184.2969 L757,184.2969 A2.5,2.5 0 0 1 759.5,186.7969 L759.5,198.7969 A2.5,2.5 0 0 1 757,201.2969 L647,201.2969 A2.5,2.5 0 0 1 644.5,198.7969 L644.5,164.5 A2.5,2.5 0 0 1 647,162 " fill="#F1F1F1" style="stroke:#181818;stroke-width:0.5;"/><line style="stroke:#181818;stroke-width:0.5;" x1="644.5" x2="742.5" y1="184.2969" y2="184.2969"/><text fill="#000000" font-family="sans-serif" font-size="14" lengthAdjust="spacing" textLength="73" x="654.5" y="177.9951">Command</text></g><!--MD5=[25c537ba92e2d55b711bbb50575381f2]
entity Event--><g id="elem_Event"><path d="M527.5,162 L582.5,162 A3.75,3.75 0 0 1 585,164.5 L592,184.2969 L606.5,184.2969 A2.5,2.5 0 0 1 609,186.7969 L609,198.7969 A2.5,2.5 0 0 1 606.5,201.2969 L527.5,201.2969 A2.5,2.5 0 0 1 525,198.7969 L525,164.5 A2.5,2.5 0 0 1 527.5,162 " fill="#F1F1F1" style="stroke:#181818;stroke-width:0.5;"/><line style="stroke:#181818;stroke-width:0.5;" x1="525" x2="592" y1="184.2969" y2="184.2969"/><text fill="#000000" font-family="sans-serif" font-size="14" lengthAdjust="spacing" textLength="42" x="535" y="177.9951">Event</text></g><!--MD5=[e22d6a9d9c77f876df59e8cb880c9837]
entity Query--><g id="elem_Query"><path d="M408.5,162 L463.5,162 A3.75,3.75 0 0 1 466,164.5 L473,184.2969 L487.5,184.2969 A2.5,2.5 0 0 1 490,186.7969 L490,198.7969 A2.5,2.5 0 0 1 487.5,201.2969 L408.5,201.2969 A2.5,2.5 0 0 1 406,198.7969 L406,164.5 A2.5,2.5 0 0 1 408.5,162 " fill="#F1F1F1" style="stroke:#181818;stroke-width:0.5;"/><line style="stroke:#181818;stroke-width:0.5;" x1="406" x2="473" y1="184.2969" y2="184.2969"/><text fill="#000000" font-family="sans-serif" font-size="14" lengthAdjust="spacing" textLength="42" x="416" y="177.9951">Query</text></g><!--MD5=[b21194f3cc51182c46c07cbdb0c49fd9]
entity CMS--><g id="elem_CMS"><rect fill="#F1F1F1" height="46.2969" rx="2.5" ry="2.5" style="stroke:#181818;stroke-width:0.5;" width="189" x="861.5" y="319"/><rect fill="#F1F1F1" height="10" style="stroke:#181818;stroke-width:0.5;" width="15" x="1030.5" y="324"/><rect fill="#F1F1F1" height="2" style="stroke:#181818;stroke-width:0.5;" width="4" x="1028.5" y="326"/><rect fill="#F1F1F1" height="2" style="stroke:#181818;stroke-width:0.5;" width="4" x="1028.5" y="330"/><text fill="#000000" font-family="sans-serif" font-size="14" lengthAdjust="spacing" textLength="149" x="876.5" y="351.9951">Money Transfer Saga</text></g><!--MD5=[6b04642f20b6a8859d8cf98b1438fb1d]
entity CMA--><g id="elem_CMA"><rect fill="#F1F1F1" height="46.2969" rx="2.5" ry="2.5" style="stroke:#181818;stroke-width:0.5;" width="219" x="607.5" y="319"/><rect fill="#F1F1F1" height="10" style="stroke:#181818;stroke-width:0.5;" width="15" x="806.5" y="324"/><rect fill="#F1F1F1" height="2" style="stroke:#181818;stroke-width:0.5;" width="4" x="804.5" y="326"/><rect fill="#F1F1F1" height="2" style="stroke:#181818;stroke-width:0.5;" width="4" x="804.5" y="330"/><text fill="#000000" font-family="sans-serif" font-size="14" lengthAdjust="spacing" textLength="179" x="622.5" y="351.9951">Bank Account Aggregate</text></g><!--MD5=[68eb3513321895f3a35fffb9106e8447]
entity QMC--><g id="elem_QMC"><rect fill="#F1F1F1" height="46.2969" rx="2.5" ry="2.5" style="stroke:#181818;stroke-width:0.5;" width="233" x="317.5" y="319"/><rect fill="#F1F1F1" height="10" style="stroke:#181818;stroke-width:0.5;" width="15" x="530.5" y="324"/><rect fill="#F1F1F1" height="2" style="stroke:#181818;stroke-width:0.5;" width="4" x="528.5" y="326"/><rect fill="#F1F1F1" height="2" style="stroke:#181818;stroke-width:0.5;" width="4" x="528.5" y="330"/><text fill="#000000" font-family="sans-serif" font-size="14" lengthAdjust="spacing" textLength="193" x="332.5" y="351.9951">Current Balance Projection</text></g><!--MD5=[9263c2185718676f77ade7c65e597721]
entity QMM--><g id="elem_QMM"><rect fill="#F1F1F1" height="46.2969" rx="2.5" ry="2.5" style="stroke:#181818;stroke-width:0.5;" width="236" x="46" y="319"/><rect fill="#F1F1F1" height="10" style="stroke:#181818;stroke-width:0.5;" width="15" x="262" y="324"/><rect fill="#F1F1F1" height="2" style="stroke:#181818;stroke-width:0.5;" width="4" x="260" y="326"/><rect fill="#F1F1F1" height="2" style="stroke:#181818;stroke-width:0.5;" width="4" x="260" y="330"/><text fill="#000000" font-family="sans-serif" font-size="14" lengthAdjust="spacing" textLength="196" x="61" y="351.9951">Money Transfers Projection</text></g><!--MD5=[942a4c930fa19f69b62db0d3767757af]
link RCC to Command--><g id="link_RCC_Command"><path d="M684.242,87.27 C688.04,107.212 693.594,136.37 697.477,156.752 " fill="none" id="RCC-to-Command" style="stroke:#181818;stroke-width:1.0;"/><polygon fill="#181818" points="698.426,161.734,700.671,152.1444,697.4902,156.8223,692.8123,153.6416,698.426,161.734" style="stroke:#181818;stroke-width:1.0;"/></g><!--MD5=[01cce186ffdfb96398d7723bcdecfd38]
link RQC to Query--><g id="link_RQC_Query"><path d="M465.758,87.27 C461.96,107.212 456.406,136.37 452.523,156.752 " fill="none" id="RQC-to-Query" style="stroke:#181818;stroke-width:1.0;"/><polygon fill="#181818" points="451.574,161.734,457.1877,153.6416,452.5098,156.8223,449.329,152.1444,451.574,161.734" style="stroke:#181818;stroke-width:1.0;"/></g><!--MD5=[414728e37048a9b586e9221ff442a343]
reverse link Query to QMC--><g id="link_Query_QMC"><path d="M445.891,206.371 C443.196,236.883 438.567,289.293 435.95,318.918 " fill="none" id="Query-backto-QMC" style="stroke:#181818;stroke-width:1.0;"/><polygon fill="#181818" points="446.339,201.304,441.5624,209.917,445.8989,206.2846,449.5314,210.6211,446.339,201.304" style="stroke:#181818;stroke-width:1.0;"/></g><!--MD5=[fd914d4afc87d3ec314e7759d5b93468]
reverse link Query to QMM--><g id="link_Query_QMM"><path d="M400.792,194.138 C370.841,202.587 331.87,215.59 300,233 C256.342,256.85 212.464,294.821 186.787,318.803 " fill="none" id="Query-backto-QMM" style="stroke:#181818;stroke-width:1.0;"/><polygon fill="#181818" points="405.896,192.717,396.1528,191.278,401.0793,194.0583,398.2989,198.9847,405.896,192.717" style="stroke:#181818;stroke-width:1.0;"/></g><!--MD5=[070e1126533b41dc76b1e24ae087e3ca]
reverse link Event to CMA--><g id="link_Event_CMA"><path d="M588.527,205.247 C617.234,235.58 667.718,288.925 696.102,318.918 " fill="none" id="Event-backto-CMA" style="stroke:#181818;stroke-width:1.0;"/><polygon fill="#181818" points="584.796,201.304,588.0776,210.5901,588.2331,204.9353,593.8878,205.0908,584.796,201.304" style="stroke:#181818;stroke-width:1.0;"/></g><!--MD5=[356f20058b855c704418515e50f91acb]
reverse link Command to CMA--><g id="link_Command_CMA"><path d="M704.259,206.371 C707.147,236.883 712.107,289.293 714.91,318.918 " fill="none" id="Command-backto-CMA" style="stroke:#181818;stroke-width:1.0;"/><polygon fill="#181818" points="703.78,201.304,700.6465,210.6411,704.2515,206.2817,708.6108,209.8867,703.78,201.304" style="stroke:#181818;stroke-width:1.0;"/></g><!--MD5=[03d55cd5e87c4c4359fed6456b119522]
reverse link Event to QMC--><g id="link_Event_QMC"><path d="M547.913,205.247 C522.459,235.58 477.697,288.925 452.529,318.918 " fill="none" id="Event-backto-QMC" style="stroke:#181818;stroke-width:1.0;"/><polygon fill="#181818" points="551.221,201.304,542.3714,205.6265,548.0067,205.134,548.4993,210.7693,551.221,201.304" style="stroke:#181818;stroke-width:1.0;"/></g><!--MD5=[4ae008c7a2f55d2bc022390fd88592b3]
reverse link Event to QMM--><g id="link_Event_QMM"><path d="M543.485,204.309 C533.339,212.353 520.857,220.577 508,225 C464.26,240.048 343.375,216.931 300,233 C251.937,250.806 207.734,292.589 183.46,318.653 " fill="none" id="Event-backto-QMM" style="stroke:#181818;stroke-width:1.0;"/><polygon fill="#181818" points="547.398,201.125,537.8934,203.7062,543.5208,204.2822,542.9448,209.9096,547.398,201.125" style="stroke:#181818;stroke-width:1.0;"/></g><!--MD5=[090c613345f17cb8bb70f5da15cfd9d8]
reverse link Event to CMS--><g id="link_Event_CMS"><path d="M590.967,204.321 C601.294,212.366 613.979,220.588 627,225 C672.493,240.413 798.757,214.3 843,233 C885.493,250.961 921.381,292.693 940.697,318.705 " fill="none" id="Event-backto-CMS" style="stroke:#181818;stroke-width:1.0;"/><polygon fill="#181818" points="586.984,201.136,591.5138,209.8813,590.8886,204.2591,596.5108,203.6339,586.984,201.136" style="stroke:#181818;stroke-width:1.0;"/></g><!--MD5=[2f9ff270b41d1e193357af16d31fd93c]
reverse link Command to CMS--><g id="link_Command_CMS"><path d="M764.736,198.759 C790.131,206.889 819.046,218.203 843,233 C881.094,256.532 917.025,294.595 937.756,318.682 " fill="none" id="Command-backto-CMS" style="stroke:#181818;stroke-width:1.0;"/><polygon fill="#181818" points="759.706,197.175,767.0898,203.6926,764.4753,198.6762,769.4917,196.0617,759.706,197.175" style="stroke:#181818;stroke-width:1.0;"/></g><!--MD5=[9e7df44257486617f93879ee15cc0521]
@startuml
package "REST Adapter" as RA {
  [Command Controller] as RCC
  [Query Controller] as RQC
}

package "Domain API" as API {
  package "Command"
  package "Event"
  package "Query"
}

package "Holi Bank Domain" {
  [Money Transfer Saga] as CMS

  package "Command Model" as CM {
    [Bank Account Aggregate] as CMA

  }
  package "Query Model" as QM {
    [Current Balance Projection] as QMC
    [Money Transfers Projection] as QMM
  }
}

RCC -d-> Command
RQC -d-> Query
QMC -u-> Query
QMM -u-> Query

CMA -u-> Event
CMA -u-> Command
QMC -u-> Event
QMM -u-> Event
CMS -u-> Event
CMS -u-> Command
@enduml

PlantUML version 1.2022.8beta9(Unknown compile time)
(GPL source distribution)
Java Runtime: Java(TM) SE Runtime Environment
JVM: Java HotSpot(TM) 64-Bit Server VM
Default Encoding: UTF-8
Language: en
Country: US
--></g></svg>