<?xml version="1.0" encoding="utf-8"?><!DOCTYPE svg PUBLIC "-//W3C//DTD SVG 1.1//EN" "http://www.w3.org/Graphics/SVG/1.1/DTD/svg11.dtd"><svg xmlns:xlink="http://www.w3.org/1999/xlink" xmlns="http://www.w3.org/2000/svg" id="map" viewBox="0 0 246 246" width="1000" height="1000" data-dot="6"><rect x="0" y="0" height="246" width="246" fill="#ffffff"/><defs/><g fill="#000000"><rect x="24" y="204" width="18" height="18" transform="rotate(-90,33,213)"/><path clip-rule="evenodd" class="svgeye" d="M 12 192v 42h 42v -42zM 18 198h 30v 30h -30z" transform="rotate(-90,33,213)"/><rect x="204" y="24" width="18" height="18" transform="rotate(90,213,33)"/><path clip-rule="evenodd" class="svgeye" d="M 192 12v 42h 42v -42zM 198 18h 30v 30h -30z" transform="rotate(90,213,33)"/><rect x="24" y="24" width="18" height="18" transform="rotate(0,33,33)"/><path clip-rule="evenodd" class="svgeye" d="M 12 12v 42h 42v -42zM 18 18h 30v 30h -30z" transform="rotate(0,33,33)"/><rect x="66" y="12" width="6" height="6" transform="rotate(0,69,15)"/><rect x="78" y="12" width="6" height="6" transform="rotate(0,81,15)"/><rect x="90" y="12" width="6" height="6" transform="rotate(0,93,15)"/><rect x="120" y="12" width="6" height="6" transform="rotate(0,123,15)"/><rect x="126" y="12" width="6" height="6" transform="rotate(0,129,15)"/><rect x="132" y="12" width="6" height="6" transform="rotate(0,135,15)"/><rect x="180" y="12" width="6" height="6" transform="rotate(0,183,15)"/><rect x="60" y="18" width="6" height="6" transform="rotate(0,63,21)"/><rect x="84" y="18" width="6" height="6" transform="rotate(0,87,21)"/><rect x="90" y="18" width="6" height="6" transform="rotate(0,93,21)"/><rect x="96" y="18" width="6" height="6" transform="rotate(0,99,21)"/><rect x="102" y="18" width="6" height="6" transform="rotate(0,105,21)"/><rect x="126" y="18" width="6" height="6" transform="rotate(0,129,21)"/><rect x="168" y="18" width="6" height="6" transform="rotate(0,171,21)"/><rect x="60" y="24" width="6" height="6" transform="rotate(0,63,27)"/><rect x="66" y="24" width="6" height="6" transform="rotate(0,69,27)"/><rect x="114" y="24" width="6" height="6" transform="rotate(0,117,27)"/><rect x="120" y="24" width="6" height="6" transform="rotate(0,123,27)"/><rect x="144" y="24" width="6" height="6" transform="rotate(0,147,27)"/><rect x="150" y="24" width="6" height="6" transform="rotate(0,153,27)"/><rect x="156" y="24" width="6" height="6" transform="rotate(0,159,27)"/><rect x="162" y="24" width="6" height="6" transform="rotate(0,165,27)"/><rect x="168" y="24" width="6" height="6" transform="rotate(0,171,27)"/><rect x="66" y="30" width="6" height="6" transform="rotate(0,69,33)"/><rect x="72" y="30" width="6" height="6" transform="rotate(0,75,33)"/><rect x="84" y="30" width="6" height="6" transform="rotate(0,87,33)"/><rect x="90" y="30" width="6" height="6" transform="rotate(0,93,33)"/><rect x="102" y="30" width="6" height="6" transform="rotate(0,105,33)"/><rect x="120" y="30" width="6" height="6" transform="rotate(0,123,33)"/><rect x="144" y="30" width="6" height="6" transform="rotate(0,147,33)"/><rect x="150" y="30" width="6" height="6" transform="rotate(0,153,33)"/><rect x="162" y="30" width="6" height="6" transform="rotate(0,165,33)"/><rect x="168" y="30" width="6" height="6" transform="rotate(0,171,33)"/><rect x="78" y="36" width="6" height="6" transform="rotate(0,81,39)"/><rect x="90" y="36" width="6" height="6" transform="rotate(0,93,39)"/><rect x="96" y="36" width="6" height="6" transform="rotate(0,99,39)"/><rect x="102" y="36" width="6" height="6" transform="rotate(0,105,39)"/><rect x="114" y="36" width="6" height="6" transform="rotate(0,117,39)"/><rect x="126" y="36" width="6" height="6" transform="rotate(0,129,39)"/><rect x="138" y="36" width="6" height="6" transform="rotate(0,141,39)"/><rect x="144" y="36" width="6" height="6" transform="rotate(0,147,39)"/><rect x="156" y="36" width="6" height="6" transform="rotate(0,159,39)"/><rect x="162" y="36" width="6" height="6" transform="rotate(0,165,39)"/><rect x="174" y="36" width="6" height="6" transform="rotate(0,177,39)"/><rect x="66" y="42" width="6" height="6" transform="rotate(0,69,45)"/><rect x="72" y="42" width="6" height="6" transform="rotate(0,75,45)"/><rect x="84" y="42" width="6" height="6" transform="rotate(0,87,45)"/><rect x="108" y="42" width="6" height="6" transform="rotate(0,111,45)"/><rect x="120" y="42" width="6" height="6" transform="rotate(0,123,45)"/><rect x="126" y="42" width="6" height="6" transform="rotate(0,129,45)"/><rect x="138" y="42" width="6" height="6" transform="rotate(0,141,45)"/><rect x="156" y="42" width="6" height="6" transform="rotate(0,159,45)"/><rect x="168" y="42" width="6" height="6" transform="rotate(0,171,45)"/><rect x="60" y="48" width="6" height="6" transform="rotate(0,63,51)"/><rect x="72" y="48" width="6" height="6" transform="rotate(0,75,51)"/><rect x="84" y="48" width="6" height="6" transform="rotate(0,87,51)"/><rect x="96" y="48" width="6" height="6" transform="rotate(0,99,51)"/><rect x="108" y="48" width="6" height="6" transform="rotate(0,111,51)"/><rect x="120" y="48" width="6" height="6" transform="rotate(0,123,51)"/><rect x="132" y="48" width="6" height="6" transform="rotate(0,135,51)"/><rect x="144" y="48" width="6" height="6" transform="rotate(0,147,51)"/><rect x="156" y="48" width="6" height="6" transform="rotate(0,159,51)"/><rect x="168" y="48" width="6" height="6" transform="rotate(0,171,51)"/><rect x="180" y="48" width="6" height="6" transform="rotate(0,183,51)"/><rect x="72" y="54" width="6" height="6" transform="rotate(0,75,57)"/><rect x="78" y="54" width="6" height="6" transform="rotate(0,81,57)"/><rect x="90" y="54" width="6" height="6" transform="rotate(0,93,57)"/><rect x="96" y="54" width="6" height="6" transform="rotate(0,99,57)"/><rect x="126" y="54" width="6" height="6" transform="rotate(0,129,57)"/><rect x="144" y="54" width="6" height="6" transform="rotate(0,147,57)"/><rect x="150" y="54" width="6" height="6" transform="rotate(0,153,57)"/><rect x="156" y="54" width="6" height="6" transform="rotate(0,159,57)"/><rect x="162" y="54" width="6" height="6" transform="rotate(0,165,57)"/><rect x="168" y="54" width="6" height="6" transform="rotate(0,171,57)"/><rect x="174" y="54" width="6" height="6" transform="rotate(0,177,57)"/><rect x="180" y="54" width="6" height="6" transform="rotate(0,183,57)"/><rect x="18" y="60" width="6" height="6" transform="rotate(0,21,63)"/><rect x="24" y="60" width="6" height="6" transform="rotate(0,27,63)"/><rect x="30" y="60" width="6" height="6" transform="rotate(0,33,63)"/><rect x="42" y="60" width="6" height="6" transform="rotate(0,45,63)"/><rect x="48" y="60" width="6" height="6" transform="rotate(0,51,63)"/><rect x="66" y="60" width="6" height="6" transform="rotate(0,69,63)"/><rect x="78" y="60" width="6" height="6" transform="rotate(0,81,63)"/><rect x="120" y="60" width="6" height="6" transform="rotate(0,123,63)"/><rect x="138" y="60" width="6" height="6" transform="rotate(0,141,63)"/><rect x="150" y="60" width="6" height="6" transform="rotate(0,153,63)"/><rect x="162" y="60" width="6" height="6" transform="rotate(0,165,63)"/><rect x="168" y="60" width="6" height="6" transform="rotate(0,171,63)"/><rect x="174" y="60" width="6" height="6" transform="rotate(0,177,63)"/><rect x="216" y="60" width="6" height="6" transform="rotate(0,219,63)"/><rect x="222" y="60" width="6" height="6" transform="rotate(0,225,63)"/><rect x="18" y="66" width="6" height="6" transform="rotate(0,21,69)"/><rect x="24" y="66" width="6" height="6" transform="rotate(0,27,69)"/><rect x="30" y="66" width="6" height="6" transform="rotate(0,33,69)"/><rect x="60" y="66" width="6" height="6" transform="rotate(0,63,69)"/><rect x="66" y="66" width="6" height="6" transform="rotate(0,69,69)"/><rect x="84" y="66" width="6" height="6" transform="rotate(0,87,69)"/><rect x="102" y="66" width="6" height="6" transform="rotate(0,105,69)"/><rect x="108" y="66" width="6" height="6" transform="rotate(0,111,69)"/><rect x="114" y="66" width="6" height="6" transform="rotate(0,117,69)"/><rect x="138" y="66" width="6" height="6" transform="rotate(0,141,69)"/><rect x="144" y="66" width="6" height="6" transform="rotate(0,147,69)"/><rect x="150" y="66" width="6" height="6" transform="rotate(0,153,69)"/><rect x="156" y="66" width="6" height="6" transform="rotate(0,159,69)"/><rect x="162" y="66" width="6" height="6" transform="rotate(0,165,69)"/><rect x="174" y="66" width="6" height="6" transform="rotate(0,177,69)"/><rect x="192" y="66" width="6" height="6" transform="rotate(0,195,69)"/><rect x="198" y="66" width="6" height="6" transform="rotate(0,201,69)"/><rect x="204" y="66" width="6" height="6" transform="rotate(0,207,69)"/><rect x="210" y="66" width="6" height="6" transform="rotate(0,213,69)"/><rect x="216" y="66" width="6" height="6" transform="rotate(0,219,69)"/><rect x="12" y="72" width="6" height="6" transform="rotate(0,15,75)"/><rect x="18" y="72" width="6" height="6" transform="rotate(0,21,75)"/><rect x="36" y="72" width="6" height="6" transform="rotate(0,39,75)"/><rect x="42" y="72" width="6" height="6" transform="rotate(0,45,75)"/><rect x="48" y="72" width="6" height="6" transform="rotate(0,51,75)"/><rect x="72" y="72" width="6" height="6" transform="rotate(0,75,75)"/><rect x="90" y="72" width="6" height="6" transform="rotate(0,93,75)"/><rect x="102" y="72" width="6" height="6" transform="rotate(0,105,75)"/><rect x="120" y="72" width="6" height="6" transform="rotate(0,123,75)"/><rect x="144" y="72" width="6" height="6" transform="rotate(0,147,75)"/><rect x="150" y="72" width="6" height="6" transform="rotate(0,153,75)"/><rect x="162" y="72" width="6" height="6" transform="rotate(0,165,75)"/><rect x="180" y="72" width="6" height="6" transform="rotate(0,183,75)"/><rect x="186" y="72" width="6" height="6" transform="rotate(0,189,75)"/><rect x="210" y="72" width="6" height="6" transform="rotate(0,213,75)"/><rect x="12" y="78" width="6" height="6" transform="rotate(0,15,81)"/><rect x="66" y="78" width="6" height="6" transform="rotate(0,69,81)"/><rect x="72" y="78" width="6" height="6" transform="rotate(0,75,81)"/><rect x="90" y="78" width="6" height="6" transform="rotate(0,93,81)"/><rect x="96" y="78" width="6" height="6" transform="rotate(0,99,81)"/><rect x="108" y="78" width="6" height="6" transform="rotate(0,111,81)"/><rect x="114" y="78" width="6" height="6" transform="rotate(0,117,81)"/><rect x="120" y="78" width="6" height="6" transform="rotate(0,123,81)"/><rect x="144" y="78" width="6" height="6" transform="rotate(0,147,81)"/><rect x="150" y="78" width="6" height="6" transform="rotate(0,153,81)"/><rect x="156" y="78" width="6" height="6" transform="rotate(0,159,81)"/><rect x="162" y="78" width="6" height="6" transform="rotate(0,165,81)"/><rect x="168" y="78" width="6" height="6" transform="rotate(0,171,81)"/><rect x="180" y="78" width="6" height="6" transform="rotate(0,183,81)"/><rect x="204" y="78" width="6" height="6" transform="rotate(0,207,81)"/><rect x="210" y="78" width="6" height="6" transform="rotate(0,213,81)"/><rect x="216" y="78" width="6" height="6" transform="rotate(0,219,81)"/><rect x="228" y="78" width="6" height="6" transform="rotate(0,231,81)"/><rect x="18" y="84" width="6" height="6" transform="rotate(0,21,87)"/><rect x="30" y="84" width="6" height="6" transform="rotate(0,33,87)"/><rect x="36" y="84" width="6" height="6" transform="rotate(0,39,87)"/><rect x="48" y="84" width="6" height="6" transform="rotate(0,51,87)"/><rect x="54" y="84" width="6" height="6" transform="rotate(0,57,87)"/><rect x="66" y="84" width="6" height="6" transform="rotate(0,69,87)"/><rect x="78" y="84" width="6" height="6" transform="rotate(0,81,87)"/><rect x="96" y="84" width="6" height="6" transform="rotate(0,99,87)"/><rect x="126" y="84" width="6" height="6" transform="rotate(0,129,87)"/><rect x="132" y="84" width="6" height="6" transform="rotate(0,135,87)"/><rect x="144" y="84" width="6" height="6" transform="rotate(0,147,87)"/><rect x="150" y="84" width="6" height="6" transform="rotate(0,153,87)"/><rect x="156" y="84" width="6" height="6" transform="rotate(0,159,87)"/><rect x="162" y="84" width="6" height="6" transform="rotate(0,165,87)"/><rect x="168" y="84" width="6" height="6" transform="rotate(0,171,87)"/><rect x="174" y="84" width="6" height="6" transform="rotate(0,177,87)"/><rect x="186" y="84" width="6" height="6" transform="rotate(0,189,87)"/><rect x="192" y="84" width="6" height="6" transform="rotate(0,195,87)"/><rect x="204" y="84" width="6" height="6" transform="rotate(0,207,87)"/><rect x="210" y="84" width="6" height="6" transform="rotate(0,213,87)"/><rect x="216" y="84" width="6" height="6" transform="rotate(0,219,87)"/><rect x="228" y="84" width="6" height="6" transform="rotate(0,231,87)"/><rect x="12" y="90" width="6" height="6" transform="rotate(0,15,93)"/><rect x="18" y="90" width="6" height="6" transform="rotate(0,21,93)"/><rect x="42" y="90" width="6" height="6" transform="rotate(0,45,93)"/><rect x="54" y="90" width="6" height="6" transform="rotate(0,57,93)"/><rect x="66" y="90" width="6" height="6" transform="rotate(0,69,93)"/><rect x="72" y="90" width="6" height="6" transform="rotate(0,75,93)"/><rect x="78" y="90" width="6" height="6" transform="rotate(0,81,93)"/><rect x="84" y="90" width="6" height="6" transform="rotate(0,87,93)"/><rect x="96" y="90" width="6" height="6" transform="rotate(0,99,93)"/><rect x="108" y="90" width="6" height="6" transform="rotate(0,111,93)"/><rect x="114" y="90" width="6" height="6" transform="rotate(0,117,93)"/><rect x="126" y="90" width="6" height="6" transform="rotate(0,129,93)"/><rect x="156" y="90" width="6" height="6" transform="rotate(0,159,93)"/><rect x="162" y="90" width="6" height="6" transform="rotate(0,165,93)"/><rect x="168" y="90" width="6" height="6" transform="rotate(0,171,93)"/><rect x="174" y="90" width="6" height="6" transform="rotate(0,177,93)"/><rect x="180" y="90" width="6" height="6" transform="rotate(0,183,93)"/><rect x="192" y="90" width="6" height="6" transform="rotate(0,195,93)"/><rect x="198" y="90" width="6" height="6" transform="rotate(0,201,93)"/><rect x="204" y="90" width="6" height="6" transform="rotate(0,207,93)"/><rect x="216" y="90" width="6" height="6" transform="rotate(0,219,93)"/><rect x="222" y="90" width="6" height="6" transform="rotate(0,225,93)"/><rect x="228" y="90" width="6" height="6" transform="rotate(0,231,93)"/><rect x="12" y="96" width="6" height="6" transform="rotate(0,15,99)"/><rect x="18" y="96" width="6" height="6" transform="rotate(0,21,99)"/><rect x="24" y="96" width="6" height="6" transform="rotate(0,27,99)"/><rect x="30" y="96" width="6" height="6" transform="rotate(0,33,99)"/><rect x="48" y="96" width="6" height="6" transform="rotate(0,51,99)"/><rect x="54" y="96" width="6" height="6" transform="rotate(0,57,99)"/><rect x="60" y="96" width="6" height="6" transform="rotate(0,63,99)"/><rect x="66" y="96" width="6" height="6" transform="rotate(0,69,99)"/><rect x="72" y="96" width="6" height="6" transform="rotate(0,75,99)"/><rect x="78" y="96" width="6" height="6" transform="rotate(0,81,99)"/><rect x="90" y="96" width="6" height="6" transform="rotate(0,93,99)"/><rect x="108" y="96" width="6" height="6" transform="rotate(0,111,99)"/><rect x="120" y="96" width="6" height="6" transform="rotate(0,123,99)"/><rect x="132" y="96" width="6" height="6" transform="rotate(0,135,99)"/><rect x="144" y="96" width="6" height="6" transform="rotate(0,147,99)"/><rect x="162" y="96" width="6" height="6" transform="rotate(0,165,99)"/><rect x="186" y="96" width="6" height="6" transform="rotate(0,189,99)"/><rect x="192" y="96" width="6" height="6" transform="rotate(0,195,99)"/><rect x="198" y="96" width="6" height="6" transform="rotate(0,201,99)"/><rect x="216" y="96" width="6" height="6" transform="rotate(0,219,99)"/><rect x="222" y="96" width="6" height="6" transform="rotate(0,225,99)"/><rect x="30" y="102" width="6" height="6" transform="rotate(0,33,105)"/><rect x="42" y="102" width="6" height="6" transform="rotate(0,45,105)"/><rect x="60" y="102" width="6" height="6" transform="rotate(0,63,105)"/><rect x="66" y="102" width="6" height="6" transform="rotate(0,69,105)"/><rect x="72" y="102" width="6" height="6" transform="rotate(0,75,105)"/><rect x="78" y="102" width="6" height="6" transform="rotate(0,81,105)"/><rect x="90" y="102" width="6" height="6" transform="rotate(0,93,105)"/><rect x="108" y="102" width="6" height="6" transform="rotate(0,111,105)"/><rect x="114" y="102" width="6" height="6" transform="rotate(0,117,105)"/><rect x="126" y="102" width="6" height="6" transform="rotate(0,129,105)"/><rect x="138" y="102" width="6" height="6" transform="rotate(0,141,105)"/><rect x="144" y="102" width="6" height="6" transform="rotate(0,147,105)"/><rect x="168" y="102" width="6" height="6" transform="rotate(0,171,105)"/><rect x="174" y="102" width="6" height="6" transform="rotate(0,177,105)"/><rect x="180" y="102" width="6" height="6" transform="rotate(0,183,105)"/><rect x="186" y="102" width="6" height="6" transform="rotate(0,189,105)"/><rect x="204" y="102" width="6" height="6" transform="rotate(0,207,105)"/><rect x="12" y="108" width="6" height="6" transform="rotate(0,15,111)"/><rect x="18" y="108" width="6" height="6" transform="rotate(0,21,111)"/><rect x="36" y="108" width="6" height="6" transform="rotate(0,39,111)"/><rect x="48" y="108" width="6" height="6" transform="rotate(0,51,111)"/><rect x="54" y="108" width="6" height="6" transform="rotate(0,57,111)"/><rect x="60" y="108" width="6" height="6" transform="rotate(0,63,111)"/><rect x="66" y="108" width="6" height="6" transform="rotate(0,69,111)"/><rect x="72" y="108" width="6" height="6" transform="rotate(0,75,111)"/><rect x="84" y="108" width="6" height="6" transform="rotate(0,87,111)"/><rect x="120" y="108" width="6" height="6" transform="rotate(0,123,111)"/><rect x="150" y="108" width="6" height="6" transform="rotate(0,153,111)"/><rect x="156" y="108" width="6" height="6" transform="rotate(0,159,111)"/><rect x="162" y="108" width="6" height="6" transform="rotate(0,165,111)"/><rect x="174" y="108" width="6" height="6" transform="rotate(0,177,111)"/><rect x="210" y="108" width="6" height="6" transform="rotate(0,213,111)"/><rect x="216" y="108" width="6" height="6" transform="rotate(0,219,111)"/><rect x="228" y="108" width="6" height="6" transform="rotate(0,231,111)"/><rect x="12" y="114" width="6" height="6" transform="rotate(0,15,117)"/><rect x="36" y="114" width="6" height="6" transform="rotate(0,39,117)"/><rect x="42" y="114" width="6" height="6" transform="rotate(0,45,117)"/><rect x="60" y="114" width="6" height="6" transform="rotate(0,63,117)"/><rect x="102" y="114" width="6" height="6" transform="rotate(0,105,117)"/><rect x="114" y="114" width="6" height="6" transform="rotate(0,117,117)"/><rect x="132" y="114" width="6" height="6" transform="rotate(0,135,117)"/><rect x="168" y="114" width="6" height="6" transform="rotate(0,171,117)"/><rect x="174" y="114" width="6" height="6" transform="rotate(0,177,117)"/><rect x="192" y="114" width="6" height="6" transform="rotate(0,195,117)"/><rect x="198" y="114" width="6" height="6" transform="rotate(0,201,117)"/><rect x="216" y="114" width="6" height="6" transform="rotate(0,219,117)"/><rect x="228" y="114" width="6" height="6" transform="rotate(0,231,117)"/><rect x="12" y="120" width="6" height="6" transform="rotate(0,15,123)"/><rect x="18" y="120" width="6" height="6" transform="rotate(0,21,123)"/><rect x="24" y="120" width="6" height="6" transform="rotate(0,27,123)"/><rect x="30" y="120" width="6" height="6" transform="rotate(0,33,123)"/><rect x="36" y="120" width="6" height="6" transform="rotate(0,39,123)"/><rect x="42" y="120" width="6" height="6" transform="rotate(0,45,123)"/><rect x="48" y="120" width="6" height="6" transform="rotate(0,51,123)"/><rect x="54" y="120" width="6" height="6" transform="rotate(0,57,123)"/><rect x="66" y="120" width="6" height="6" transform="rotate(0,69,123)"/><rect x="120" y="120" width="6" height="6" transform="rotate(0,123,123)"/><rect x="138" y="120" width="6" height="6" transform="rotate(0,141,123)"/><rect x="144" y="120" width="6" height="6" transform="rotate(0,147,123)"/><rect x="174" y="120" width="6" height="6" transform="rotate(0,177,123)"/><rect x="180" y="120" width="6" height="6" transform="rotate(0,183,123)"/><rect x="186" y="120" width="6" height="6" transform="rotate(0,189,123)"/><rect x="198" y="120" width="6" height="6" transform="rotate(0,201,123)"/><rect x="216" y="120" width="6" height="6" transform="rotate(0,219,123)"/><rect x="222" y="120" width="6" height="6" transform="rotate(0,225,123)"/><rect x="228" y="120" width="6" height="6" transform="rotate(0,231,123)"/><rect x="18" y="126" width="6" height="6" transform="rotate(0,21,129)"/><rect x="24" y="126" width="6" height="6" transform="rotate(0,27,129)"/><rect x="30" y="126" width="6" height="6" transform="rotate(0,33,129)"/><rect x="60" y="126" width="6" height="6" transform="rotate(0,63,129)"/><rect x="90" y="126" width="6" height="6" transform="rotate(0,93,129)"/><rect x="96" y="126" width="6" height="6" transform="rotate(0,99,129)"/><rect x="144" y="126" width="6" height="6" transform="rotate(0,147,129)"/><rect x="150" y="126" width="6" height="6" transform="rotate(0,153,129)"/><rect x="168" y="126" width="6" height="6" transform="rotate(0,171,129)"/><rect x="174" y="126" width="6" height="6" transform="rotate(0,177,129)"/><rect x="180" y="126" width="6" height="6" transform="rotate(0,183,129)"/><rect x="192" y="126" width="6" height="6" transform="rotate(0,195,129)"/><rect x="198" y="126" width="6" height="6" transform="rotate(0,201,129)"/><rect x="210" y="126" width="6" height="6" transform="rotate(0,213,129)"/><rect x="222" y="126" width="6" height="6" transform="rotate(0,225,129)"/><rect x="12" y="132" width="6" height="6" transform="rotate(0,15,135)"/><rect x="18" y="132" width="6" height="6" transform="rotate(0,21,135)"/><rect x="30" y="132" width="6" height="6" transform="rotate(0,33,135)"/><rect x="48" y="132" width="6" height="6" transform="rotate(0,51,135)"/><rect x="54" y="132" width="6" height="6" transform="rotate(0,57,135)"/><rect x="66" y="132" width="6" height="6" transform="rotate(0,69,135)"/><rect x="78" y="132" width="6" height="6" transform="rotate(0,81,135)"/><rect x="90" y="132" width="6" height="6" transform="rotate(0,93,135)"/><rect x="96" y="132" width="6" height="6" transform="rotate(0,99,135)"/><rect x="102" y="132" width="6" height="6" transform="rotate(0,105,135)"/><rect x="108" y="132" width="6" height="6" transform="rotate(0,111,135)"/><rect x="114" y="132" width="6" height="6" transform="rotate(0,117,135)"/><rect x="120" y="132" width="6" height="6" transform="rotate(0,123,135)"/><rect x="138" y="132" width="6" height="6" transform="rotate(0,141,135)"/><rect x="168" y="132" width="6" height="6" transform="rotate(0,171,135)"/><rect x="174" y="132" width="6" height="6" transform="rotate(0,177,135)"/><rect x="180" y="132" width="6" height="6" transform="rotate(0,183,135)"/><rect x="186" y="132" width="6" height="6" transform="rotate(0,189,135)"/><rect x="204" y="132" width="6" height="6" transform="rotate(0,207,135)"/><rect x="18" y="138" width="6" height="6" transform="rotate(0,21,141)"/><rect x="36" y="138" width="6" height="6" transform="rotate(0,39,141)"/><rect x="54" y="138" width="6" height="6" transform="rotate(0,57,141)"/><rect x="90" y="138" width="6" height="6" transform="rotate(0,93,141)"/><rect x="96" y="138" width="6" height="6" transform="rotate(0,99,141)"/><rect x="114" y="138" width="6" height="6" transform="rotate(0,117,141)"/><rect x="120" y="138" width="6" height="6" transform="rotate(0,123,141)"/><rect x="138" y="138" width="6" height="6" transform="rotate(0,141,141)"/><rect x="150" y="138" width="6" height="6" transform="rotate(0,153,141)"/><rect x="156" y="138" width="6" height="6" transform="rotate(0,159,141)"/><rect x="186" y="138" width="6" height="6" transform="rotate(0,189,141)"/><rect x="198" y="138" width="6" height="6" transform="rotate(0,201,141)"/><rect x="210" y="138" width="6" height="6" transform="rotate(0,213,141)"/><rect x="216" y="138" width="6" height="6" transform="rotate(0,219,141)"/><rect x="12" y="144" width="6" height="6" transform="rotate(0,15,147)"/><rect x="24" y="144" width="6" height="6" transform="rotate(0,27,147)"/><rect x="36" y="144" width="6" height="6" transform="rotate(0,39,147)"/><rect x="48" y="144" width="6" height="6" transform="rotate(0,51,147)"/><rect x="60" y="144" width="6" height="6" transform="rotate(0,63,147)"/><rect x="66" y="144" width="6" height="6" transform="rotate(0,69,147)"/><rect x="72" y="144" width="6" height="6" transform="rotate(0,75,147)"/><rect x="78" y="144" width="6" height="6" transform="rotate(0,81,147)"/><rect x="90" y="144" width="6" height="6" transform="rotate(0,93,147)"/><rect x="102" y="144" width="6" height="6" transform="rotate(0,105,147)"/><rect x="114" y="144" width="6" height="6" transform="rotate(0,117,147)"/><rect x="120" y="144" width="6" height="6" transform="rotate(0,123,147)"/><rect x="132" y="144" width="6" height="6" transform="rotate(0,135,147)"/><rect x="138" y="144" width="6" height="6" transform="rotate(0,141,147)"/><rect x="144" y="144" width="6" height="6" transform="rotate(0,147,147)"/><rect x="150" y="144" width="6" height="6" transform="rotate(0,153,147)"/><rect x="168" y="144" width="6" height="6" transform="rotate(0,171,147)"/><rect x="186" y="144" width="6" height="6" transform="rotate(0,189,147)"/><rect x="204" y="144" width="6" height="6" transform="rotate(0,207,147)"/><rect x="210" y="144" width="6" height="6" transform="rotate(0,213,147)"/><rect x="216" y="144" width="6" height="6" transform="rotate(0,219,147)"/><rect x="24" y="150" width="6" height="6" transform="rotate(0,27,153)"/><rect x="30" y="150" width="6" height="6" transform="rotate(0,33,153)"/><rect x="36" y="150" width="6" height="6" transform="rotate(0,39,153)"/><rect x="54" y="150" width="6" height="6" transform="rotate(0,57,153)"/><rect x="66" y="150" width="6" height="6" transform="rotate(0,69,153)"/><rect x="72" y="150" width="6" height="6" transform="rotate(0,75,153)"/><rect x="84" y="150" width="6" height="6" transform="rotate(0,87,153)"/><rect x="90" y="150" width="6" height="6" transform="rotate(0,93,153)"/><rect x="108" y="150" width="6" height="6" transform="rotate(0,111,153)"/><rect x="114" y="150" width="6" height="6" transform="rotate(0,117,153)"/><rect x="132" y="150" width="6" height="6" transform="rotate(0,135,153)"/><rect x="150" y="150" width="6" height="6" transform="rotate(0,153,153)"/><rect x="156" y="150" width="6" height="6" transform="rotate(0,159,153)"/><rect x="162" y="150" width="6" height="6" transform="rotate(0,165,153)"/><rect x="168" y="150" width="6" height="6" transform="rotate(0,171,153)"/><rect x="174" y="150" width="6" height="6" transform="rotate(0,177,153)"/><rect x="180" y="150" width="6" height="6" transform="rotate(0,183,153)"/><rect x="186" y="150" width="6" height="6" transform="rotate(0,189,153)"/><rect x="210" y="150" width="6" height="6" transform="rotate(0,213,153)"/><rect x="216" y="150" width="6" height="6" transform="rotate(0,219,153)"/><rect x="12" y="156" width="6" height="6" transform="rotate(0,15,159)"/><rect x="18" y="156" width="6" height="6" transform="rotate(0,21,159)"/><rect x="24" y="156" width="6" height="6" transform="rotate(0,27,159)"/><rect x="30" y="156" width="6" height="6" transform="rotate(0,33,159)"/><rect x="42" y="156" width="6" height="6" transform="rotate(0,45,159)"/><rect x="48" y="156" width="6" height="6" transform="rotate(0,51,159)"/><rect x="54" y="156" width="6" height="6" transform="rotate(0,57,159)"/><rect x="60" y="156" width="6" height="6" transform="rotate(0,63,159)"/><rect x="66" y="156" width="6" height="6" transform="rotate(0,69,159)"/><rect x="114" y="156" width="6" height="6" transform="rotate(0,117,159)"/><rect x="132" y="156" width="6" height="6" transform="rotate(0,135,159)"/><rect x="144" y="156" width="6" height="6" transform="rotate(0,147,159)"/><rect x="150" y="156" width="6" height="6" transform="rotate(0,153,159)"/><rect x="156" y="156" width="6" height="6" transform="rotate(0,159,159)"/><rect x="192" y="156" width="6" height="6" transform="rotate(0,195,159)"/><rect x="216" y="156" width="6" height="6" transform="rotate(0,219,159)"/><rect x="222" y="156" width="6" height="6" transform="rotate(0,225,159)"/><rect x="228" y="156" width="6" height="6" transform="rotate(0,231,159)"/><rect x="18" y="162" width="6" height="6" transform="rotate(0,21,165)"/><rect x="24" y="162" width="6" height="6" transform="rotate(0,27,165)"/><rect x="54" y="162" width="6" height="6" transform="rotate(0,57,165)"/><rect x="60" y="162" width="6" height="6" transform="rotate(0,63,165)"/><rect x="66" y="162" width="6" height="6" transform="rotate(0,69,165)"/><rect x="78" y="162" width="6" height="6" transform="rotate(0,81,165)"/><rect x="84" y="162" width="6" height="6" transform="rotate(0,87,165)"/><rect x="90" y="162" width="6" height="6" transform="rotate(0,93,165)"/><rect x="96" y="162" width="6" height="6" transform="rotate(0,99,165)"/><rect x="102" y="162" width="6" height="6" transform="rotate(0,105,165)"/><rect x="108" y="162" width="6" height="6" transform="rotate(0,111,165)"/><rect x="120" y="162" width="6" height="6" transform="rotate(0,123,165)"/><rect x="126" y="162" width="6" height="6" transform="rotate(0,129,165)"/><rect x="156" y="162" width="6" height="6" transform="rotate(0,159,165)"/><rect x="180" y="162" width="6" height="6" transform="rotate(0,183,165)"/><rect x="204" y="162" width="6" height="6" transform="rotate(0,207,165)"/><rect x="210" y="162" width="6" height="6" transform="rotate(0,213,165)"/><rect x="216" y="162" width="6" height="6" transform="rotate(0,219,165)"/><rect x="228" y="162" width="6" height="6" transform="rotate(0,231,165)"/><rect x="18" y="168" width="6" height="6" transform="rotate(0,21,171)"/><rect x="24" y="168" width="6" height="6" transform="rotate(0,27,171)"/><rect x="36" y="168" width="6" height="6" transform="rotate(0,39,171)"/><rect x="42" y="168" width="6" height="6" transform="rotate(0,45,171)"/><rect x="48" y="168" width="6" height="6" transform="rotate(0,51,171)"/><rect x="54" y="168" width="6" height="6" transform="rotate(0,57,171)"/><rect x="72" y="168" width="6" height="6" transform="rotate(0,75,171)"/><rect x="96" y="168" width="6" height="6" transform="rotate(0,99,171)"/><rect x="102" y="168" width="6" height="6" transform="rotate(0,105,171)"/><rect x="156" y="168" width="6" height="6" transform="rotate(0,159,171)"/><rect x="168" y="168" width="6" height="6" transform="rotate(0,171,171)"/><rect x="174" y="168" width="6" height="6" transform="rotate(0,177,171)"/><rect x="180" y="168" width="6" height="6" transform="rotate(0,183,171)"/><rect x="204" y="168" width="6" height="6" transform="rotate(0,207,171)"/><rect x="222" y="168" width="6" height="6" transform="rotate(0,225,171)"/><rect x="12" y="174" width="6" height="6" transform="rotate(0,15,177)"/><rect x="24" y="174" width="6" height="6" transform="rotate(0,27,177)"/><rect x="36" y="174" width="6" height="6" transform="rotate(0,39,177)"/><rect x="54" y="174" width="6" height="6" transform="rotate(0,57,177)"/><rect x="60" y="174" width="6" height="6" transform="rotate(0,63,177)"/><rect x="66" y="174" width="6" height="6" transform="rotate(0,69,177)"/><rect x="78" y="174" width="6" height="6" transform="rotate(0,81,177)"/><rect x="90" y="174" width="6" height="6" transform="rotate(0,93,177)"/><rect x="96" y="174" width="6" height="6" transform="rotate(0,99,177)"/><rect x="102" y="174" width="6" height="6" transform="rotate(0,105,177)"/><rect x="108" y="174" width="6" height="6" transform="rotate(0,111,177)"/><rect x="114" y="174" width="6" height="6" transform="rotate(0,117,177)"/><rect x="126" y="174" width="6" height="6" transform="rotate(0,129,177)"/><rect x="132" y="174" width="6" height="6" transform="rotate(0,135,177)"/><rect x="138" y="174" width="6" height="6" transform="rotate(0,141,177)"/><rect x="144" y="174" width="6" height="6" transform="rotate(0,147,177)"/><rect x="150" y="174" width="6" height="6" transform="rotate(0,153,177)"/><rect x="168" y="174" width="6" height="6" transform="rotate(0,171,177)"/><rect x="180" y="174" width="6" height="6" transform="rotate(0,183,177)"/><rect x="186" y="174" width="6" height="6" transform="rotate(0,189,177)"/><rect x="198" y="174" width="6" height="6" transform="rotate(0,201,177)"/><rect x="222" y="174" width="6" height="6" transform="rotate(0,225,177)"/><rect x="30" y="180" width="6" height="6" transform="rotate(0,33,183)"/><rect x="48" y="180" width="6" height="6" transform="rotate(0,51,183)"/><rect x="54" y="180" width="6" height="6" transform="rotate(0,57,183)"/><rect x="60" y="180" width="6" height="6" transform="rotate(0,63,183)"/><rect x="66" y="180" width="6" height="6" transform="rotate(0,69,183)"/><rect x="72" y="180" width="6" height="6" transform="rotate(0,75,183)"/><rect x="84" y="180" width="6" height="6" transform="rotate(0,87,183)"/><rect x="90" y="180" width="6" height="6" transform="rotate(0,93,183)"/><rect x="96" y="180" width="6" height="6" transform="rotate(0,99,183)"/><rect x="102" y="180" width="6" height="6" transform="rotate(0,105,183)"/><rect x="138" y="180" width="6" height="6" transform="rotate(0,141,183)"/><rect x="144" y="180" width="6" height="6" transform="rotate(0,147,183)"/><rect x="156" y="180" width="6" height="6" transform="rotate(0,159,183)"/><rect x="162" y="180" width="6" height="6" transform="rotate(0,165,183)"/><rect x="174" y="180" width="6" height="6" transform="rotate(0,177,183)"/><rect x="180" y="180" width="6" height="6" transform="rotate(0,183,183)"/><rect x="186" y="180" width="6" height="6" transform="rotate(0,189,183)"/><rect x="192" y="180" width="6" height="6" transform="rotate(0,195,183)"/><rect x="198" y="180" width="6" height="6" transform="rotate(0,201,183)"/><rect x="204" y="180" width="6" height="6" transform="rotate(0,207,183)"/><rect x="216" y="180" width="6" height="6" transform="rotate(0,219,183)"/><rect x="228" y="180" width="6" height="6" transform="rotate(0,231,183)"/><rect x="60" y="186" width="6" height="6" transform="rotate(0,63,189)"/><rect x="84" y="186" width="6" height="6" transform="rotate(0,87,189)"/><rect x="90" y="186" width="6" height="6" transform="rotate(0,93,189)"/><rect x="102" y="186" width="6" height="6" transform="rotate(0,105,189)"/><rect x="108" y="186" width="6" height="6" transform="rotate(0,111,189)"/><rect x="132" y="186" width="6" height="6" transform="rotate(0,135,189)"/><rect x="138" y="186" width="6" height="6" transform="rotate(0,141,189)"/><rect x="150" y="186" width="6" height="6" transform="rotate(0,153,189)"/><rect x="156" y="186" width="6" height="6" transform="rotate(0,159,189)"/><rect x="180" y="186" width="6" height="6" transform="rotate(0,183,189)"/><rect x="204" y="186" width="6" height="6" transform="rotate(0,207,189)"/><rect x="210" y="186" width="6" height="6" transform="rotate(0,213,189)"/><rect x="216" y="186" width="6" height="6" transform="rotate(0,219,189)"/><rect x="228" y="186" width="6" height="6" transform="rotate(0,231,189)"/><rect x="66" y="192" width="6" height="6" transform="rotate(0,69,195)"/><rect x="72" y="192" width="6" height="6" transform="rotate(0,75,195)"/><rect x="78" y="192" width="6" height="6" transform="rotate(0,81,195)"/><rect x="90" y="192" width="6" height="6" transform="rotate(0,93,195)"/><rect x="114" y="192" width="6" height="6" transform="rotate(0,117,195)"/><rect x="144" y="192" width="6" height="6" transform="rotate(0,147,195)"/><rect x="180" y="192" width="6" height="6" transform="rotate(0,183,195)"/><rect x="192" y="192" width="6" height="6" transform="rotate(0,195,195)"/><rect x="204" y="192" width="6" height="6" transform="rotate(0,207,195)"/><rect x="210" y="192" width="6" height="6" transform="rotate(0,213,195)"/><rect x="228" y="192" width="6" height="6" transform="rotate(0,231,195)"/><rect x="60" y="198" width="6" height="6" transform="rotate(0,63,201)"/><rect x="72" y="198" width="6" height="6" transform="rotate(0,75,201)"/><rect x="78" y="198" width="6" height="6" transform="rotate(0,81,201)"/><rect x="84" y="198" width="6" height="6" transform="rotate(0,87,201)"/><rect x="96" y="198" width="6" height="6" transform="rotate(0,99,201)"/><rect x="108" y="198" width="6" height="6" transform="rotate(0,111,201)"/><rect x="114" y="198" width="6" height="6" transform="rotate(0,117,201)"/><rect x="138" y="198" width="6" height="6" transform="rotate(0,141,201)"/><rect x="150" y="198" width="6" height="6" transform="rotate(0,153,201)"/><rect x="168" y="198" width="6" height="6" transform="rotate(0,171,201)"/><rect x="180" y="198" width="6" height="6" transform="rotate(0,183,201)"/><rect x="204" y="198" width="6" height="6" transform="rotate(0,207,201)"/><rect x="210" y="198" width="6" height="6" transform="rotate(0,213,201)"/><rect x="222" y="198" width="6" height="6" transform="rotate(0,225,201)"/><rect x="228" y="198" width="6" height="6" transform="rotate(0,231,201)"/><rect x="66" y="204" width="6" height="6" transform="rotate(0,69,207)"/><rect x="72" y="204" width="6" height="6" transform="rotate(0,75,207)"/><rect x="84" y="204" width="6" height="6" transform="rotate(0,87,207)"/><rect x="96" y="204" width="6" height="6" transform="rotate(0,99,207)"/><rect x="102" y="204" width="6" height="6" transform="rotate(0,105,207)"/><rect x="108" y="204" width="6" height="6" transform="rotate(0,111,207)"/><rect x="126" y="204" width="6" height="6" transform="rotate(0,129,207)"/><rect x="132" y="204" width="6" height="6" transform="rotate(0,135,207)"/><rect x="150" y="204" width="6" height="6" transform="rotate(0,153,207)"/><rect x="168" y="204" width="6" height="6" transform="rotate(0,171,207)"/><rect x="180" y="204" width="6" height="6" transform="rotate(0,183,207)"/><rect x="186" y="204" width="6" height="6" transform="rotate(0,189,207)"/><rect x="192" y="204" width="6" height="6" transform="rotate(0,195,207)"/><rect x="198" y="204" width="6" height="6" transform="rotate(0,201,207)"/><rect x="204" y="204" width="6" height="6" transform="rotate(0,207,207)"/><rect x="210" y="204" width="6" height="6" transform="rotate(0,213,207)"/><rect x="60" y="210" width="6" height="6" transform="rotate(0,63,213)"/><rect x="66" y="210" width="6" height="6" transform="rotate(0,69,213)"/><rect x="96" y="210" width="6" height="6" transform="rotate(0,99,213)"/><rect x="108" y="210" width="6" height="6" transform="rotate(0,111,213)"/><rect x="114" y="210" width="6" height="6" transform="rotate(0,117,213)"/><rect x="120" y="210" width="6" height="6" transform="rotate(0,123,213)"/><rect x="138" y="210" width="6" height="6" transform="rotate(0,141,213)"/><rect x="162" y="210" width="6" height="6" transform="rotate(0,165,213)"/><rect x="174" y="210" width="6" height="6" transform="rotate(0,177,213)"/><rect x="192" y="210" width="6" height="6" transform="rotate(0,195,213)"/><rect x="204" y="210" width="6" height="6" transform="rotate(0,207,213)"/><rect x="216" y="210" width="6" height="6" transform="rotate(0,219,213)"/><rect x="222" y="210" width="6" height="6" transform="rotate(0,225,213)"/><rect x="60" y="216" width="6" height="6" transform="rotate(0,63,219)"/><rect x="84" y="216" width="6" height="6" transform="rotate(0,87,219)"/><rect x="120" y="216" width="6" height="6" transform="rotate(0,123,219)"/><rect x="138" y="216" width="6" height="6" transform="rotate(0,141,219)"/><rect x="162" y="216" width="6" height="6" transform="rotate(0,165,219)"/><rect x="192" y="216" width="6" height="6" transform="rotate(0,195,219)"/><rect x="198" y="216" width="6" height="6" transform="rotate(0,201,219)"/><rect x="204" y="216" width="6" height="6" transform="rotate(0,207,219)"/><rect x="210" y="216" width="6" height="6" transform="rotate(0,213,219)"/><rect x="216" y="216" width="6" height="6" transform="rotate(0,219,219)"/><rect x="222" y="216" width="6" height="6" transform="rotate(0,225,219)"/><rect x="60" y="222" width="6" height="6" transform="rotate(0,63,225)"/><rect x="78" y="222" width="6" height="6" transform="rotate(0,81,225)"/><rect x="96" y="222" width="6" height="6" transform="rotate(0,99,225)"/><rect x="114" y="222" width="6" height="6" transform="rotate(0,117,225)"/><rect x="126" y="222" width="6" height="6" transform="rotate(0,129,225)"/><rect x="150" y="222" width="6" height="6" transform="rotate(0,153,225)"/><rect x="156" y="222" width="6" height="6" transform="rotate(0,159,225)"/><rect x="162" y="222" width="6" height="6" transform="rotate(0,165,225)"/><rect x="168" y="222" width="6" height="6" transform="rotate(0,171,225)"/><rect x="192" y="222" width="6" height="6" transform="rotate(0,195,225)"/><rect x="204" y="222" width="6" height="6" transform="rotate(0,207,225)"/><rect x="210" y="222" width="6" height="6" transform="rotate(0,213,225)"/><rect x="216" y="222" width="6" height="6" transform="rotate(0,219,225)"/><rect x="72" y="228" width="6" height="6" transform="rotate(0,75,231)"/><rect x="78" y="228" width="6" height="6" transform="rotate(0,81,231)"/><rect x="84" y="228" width="6" height="6" transform="rotate(0,87,231)"/><rect x="90" y="228" width="6" height="6" transform="rotate(0,93,231)"/><rect x="96" y="228" width="6" height="6" transform="rotate(0,99,231)"/><rect x="102" y="228" width="6" height="6" transform="rotate(0,105,231)"/><rect x="132" y="228" width="6" height="6" transform="rotate(0,135,231)"/><rect x="144" y="228" width="6" height="6" transform="rotate(0,147,231)"/><rect x="150" y="228" width="6" height="6" transform="rotate(0,153,231)"/><rect x="156" y="228" width="6" height="6" transform="rotate(0,159,231)"/><rect x="162" y="228" width="6" height="6" transform="rotate(0,165,231)"/><rect x="168" y="228" width="6" height="6" transform="rotate(0,171,231)"/><rect x="192" y="228" width="6" height="6" transform="rotate(0,195,231)"/><rect x="210" y="228" width="6" height="6" transform="rotate(0,213,231)"/><rect x="216" y="228" width="6" height="6" transform="rotate(0,219,231)"/><rect x="222" y="228" width="6" height="6" transform="rotate(0,225,231)"/><rect x="228" y="228" width="6" height="6" transform="rotate(0,231,231)"/></g></svg>